<?xml version="1.0" encoding="UTF-8" standalone="no"?>
<!-- Created with Inkscape (http://www.inkscape.org/) -->

<svg
   xmlns:dc="http://purl.org/dc/elements/1.1/"
   xmlns:cc="http://creativecommons.org/ns#"
   xmlns:rdf="http://www.w3.org/1999/02/22-rdf-syntax-ns#"
   xmlns:svg="http://www.w3.org/2000/svg"
   xmlns="http://www.w3.org/2000/svg"
   xmlns:sodipodi="http://sodipodi.sourceforge.net/DTD/sodipodi-0.dtd"
   xmlns:inkscape="http://www.inkscape.org/namespaces/inkscape"
   width="16"
   height="16"
   id="svg2"
   version="1.1"
   inkscape:version="0.92.3 (2405546, 2018-03-11)"
   sodipodi:docname="min_prelight.svg"
   inkscape:export-filename="/home/lara/github/Nord/assets/min_prelight.png"
   inkscape:export-xdpi="96"
   inkscape:export-ydpi="96">
  <defs
     id="defs4" />
  <sodipodi:namedview
     id="base"
     pagecolor="#ffffff"
     bordercolor="#666666"
     borderopacity="1.0"
     inkscape:pageopacity="0.0"
     inkscape:pageshadow="2"
     inkscape:zoom="18.836639"
     inkscape:cx="7.4763183"
     inkscape:cy="6.7404309"
     inkscape:document-units="px"
     inkscape:current-layer="g4415"
     showgrid="true"
     fit-margin-top="0"
     fit-margin-left="0"
     fit-margin-right="0"
     fit-margin-bottom="0"
     inkscape:window-width="1366"
     inkscape:window-height="713"
     inkscape:window-x="0"
     inkscape:window-y="25"
     inkscape:window-maximized="1" />
  <metadata
     id="metadata7">
    <rdf:RDF>
      <cc:Work
         rdf:about="">
        <dc:format>image/svg+xml</dc:format>
        <dc:type
           rdf:resource="http://purl.org/dc/dcmitype/StillImage" />
        <dc:title></dc:title>
      </cc:Work>
    </rdf:RDF>
  </metadata>
  <g
     inkscape:label="Layer 1"
     inkscape:groupmode="layer"
     id="layer1"
     transform="matrix(1,0,0,1,-671.1,-648.6)">
    <g
       transform="matrix(0.1,0,0,-0.1,672.1,663.1)"
       inkscape:label="ink_ext_XXXXXX"
       id="g4090">
      <g
         transform="scale(0.1,0.1)"
         id="g4092">
        <g
           transform="matrix(10,0,0,10,-4,0.1)"
           inkscape:label="ink_ext_XXXXXX"
           id="g4285">
          <g
             transform="scale(0.1,0.1)"
             id="g4287">
            <g
               transform="matrix(10,0,0,10,4.1,2)"
               inkscape:label="ink_ext_XXXXXX"
               id="g4413">
              <g
                 transform="scale(0.1,0.1)"
                 id="g4415">
                <path
                   id="path4417"
                   style="fill: #232831; fill-rule: evenodd; stroke: none; stroke-width: 1.1; fill-opacity: 1"
                   d="M 1111.1 -576.1 c 349.1 0 632.1 283 632.1 632.1 c 0 349.1 -283 632.1 -632.1 632.1 c -349.1 0 -632.1 -283 -632.1 -632.1 c 0 -349.1 283 -632.1 632.1 -632.1"
                   inkscape:connector-curvature="0"
                   inkscape:export-xdpi="90.000389"
                   inkscape:export-ydpi="90.000389" />
                <path
                   id="path4419"
                   style="fill: #ffdb8e; fill-rule: evenodd; stroke: none; fill-opacity: 1"
                   d="M 1111.7 -465.8 c 283.6 0 513.6 229.9 513.6 513.6 c 0 283.6 -229.9 513.6 -513.6 513.6 c -283.6 0 -513.6 -229.9 -513.6 -513.6 c 0 -283.6 229.9 -513.6 513.6 -513.6"
                   inkscape:connector-curvature="0"
                   inkscape:export-xdpi="90.000389"
                   inkscape:export-ydpi="90.000389" />
                <path
                   id="path4421"
                   style="fill: #212337; fill-rule: evenodd; stroke: none; stroke-width: 10.1; fill-opacity: 1"
                   d="M 768.5 87 h 655.4 c 25.4 0 46.1 -20.7 46.1 -46.1 v -1.2 c 0 -25.4 -20.8 -46.1 -46.1 -46.1 H 768.5 c -25.4 0 -46.1 20.7 -46.1 46.1 v 1.2 c 0 25.4 20.7 46.1 46.1 46.1"
                   inkscape:connector-curvature="0" />
              </g>
            </g>
          </g>
        </g>
      </g>
    </g>
  </g>
</svg>
